<?xml version="1.0" standalone="no"?>
<!DOCTYPE svg PUBLIC "-//W3C//DTD SVG 20010904//EN"
 "http://www.w3.org/TR/2001/REC-SVG-20010904/DTD/svg10.dtd">
<svg version="1.0" xmlns="http://www.w3.org/2000/svg"
 width="256.000000pt" height="256.000000pt" viewBox="0 0 256.000000 256.000000"
 preserveAspectRatio="xMidYMid meet">
<metadata>
Created by potrace 1.11, written by Peter Selinger 2001-2013
</metadata>
<g transform="translate(0.000000,256.000000) scale(0.100000,-0.100000)"
fill="#000000" stroke="none">
<path d="M1212 2070 c3 -8 13 -17 24 -18 32 -6 41 -22 16 -28 -12 -4 -19 -11
-16 -16 4 -6 -1 -6 -13 0 -11 6 -29 8 -41 5 -18 -4 -22 -1 -22 16 0 25 8 26
38 5 27 -19 29 -4 3 20 -17 16 -25 16 -75 5 -48 -12 -66 -24 -136 -89 -44 -42
-80 -80 -80 -86 0 -5 -18 -26 -39 -47 -21 -21 -41 -50 -44 -65 -15 -81 20
-259 49 -248 9 3 19 -7 29 -30 21 -50 34 -34 21 26 -7 34 -7 53 0 60 7 7 9 1
6 -19 -4 -27 0 -32 44 -53 52 -25 66 -44 37 -51 -18 -5 57 -11 91 -7 16 1 15
-3 -9 -34 -29 -38 -55 -50 -101 -44 -20 2 -30 10 -34 27 -3 14 -12 27 -19 29
-11 4 -12 -1 -7 -19 21 -72 19 -86 -9 -93 -26 -7 -27 -9 -21 -49 8 -49 54
-174 67 -183 16 -9 10 -34 -9 -34 -33 0 -200 -57 -245 -83 -51 -30 -62 -49
-46 -79 9 -17 9 -20 -2 -16 -11 4 -14 -11 -13 -76 0 -44 4 -93 8 -109 6 -18 3
-38 -7 -60 -8 -17 -24 -53 -36 -79 -27 -60 -52 -75 -76 -48 -10 11 -20 18 -23
15 -3 -3 -12 1 -20 8 -25 20 -70 15 -83 -10 -13 -24 -29 -31 -29 -13 0 6 -16
10 -35 10 -31 0 -35 -3 -41 -36 -4 -24 -11 -34 -20 -30 -22 8 -36 -30 -28 -79
7 -52 -2 -59 -18 -14 -10 28 -11 29 -28 14 -10 -9 -28 -47 -40 -85 -12 -38
-28 -74 -35 -80 -7 -6 -16 -26 -19 -45 -4 -19 -11 -35 -15 -35 -14 0 -61 -78
-61 -100 l0 -20 1128 3 c620 2 1132 5 1137 6 6 1 45 -1 89 -5 l79 -6 -7 25
c-3 14 -2 29 4 32 6 4 13 -7 16 -24 6 -26 11 -31 35 -31 l29 0 0 365 0 366
-22 -12 -23 -12 23 25 c19 21 22 35 22 99 l-1 74 -24 -30 c-32 -39 -32 -24 0
23 29 43 38 135 10 112 -10 -8 -15 -9 -15 -2 0 6 8 16 18 21 15 9 15 12 2 20
-12 8 -12 13 -2 23 14 14 16 78 2 78 -5 0 -10 -7 -10 -16 0 -11 -6 -14 -21 -9
-15 5 -19 4 -15 -4 4 -6 2 -11 -4 -11 -7 0 -10 53 -9 163 1 89 -1 176 -4 192
-27 153 -31 259 -12 275 8 7 15 22 15 33 0 16 -3 18 -12 9 -17 -17 -29 -15
-26 5 4 25 -29 28 -37 4 -3 -12 -11 -21 -16 -21 -15 0 -10 -19 9 -38 23 -23
22 -94 -4 -344 -5 -46 -5 -47 28 -51 l33 -4 -34 -1 c-28 -2 -32 -5 -25 -19 4
-10 10 -62 12 -115 3 -85 2 -98 -12 -98 -12 0 -16 -10 -17 -37 0 -21 -3 -56
-7 -78 l-8 -40 -12 33 c-15 44 -28 34 -37 -27 -5 -36 -3 -56 8 -73 17 -27 57
-156 57 -184 -1 -26 -21 22 -49 114 -13 41 -24 72 -27 70 -3 -3 -30 -105 -51
-194 -3 -12 2 -35 11 -52 9 -18 19 -59 23 -92 4 -45 11 -64 24 -71 11 -5 19
-16 19 -24 0 -25 -23 -65 -37 -65 -26 0 -132 55 -133 69 0 11 -3 11 -15 1 -13
-11 -15 -6 -15 39 0 56 -9 63 -33 28 l-16 -22 -16 23 c-9 12 -19 22 -24 22 -9
0 -31 -59 -31 -86 -1 -10 -6 -32 -13 -47 l-12 -28 -42 38 c-24 22 -52 61 -66
93 -35 80 -52 91 -121 81 -5 0 -3 -7 3 -15 9 -10 8 -16 -3 -25 -11 -10 -17 -8
-25 6 -6 10 -11 12 -11 6 0 -7 -4 -13 -10 -13 -6 0 -6 9 1 24 8 18 7 30 -4 52
-13 25 -13 33 -1 54 22 40 18 53 -13 46 -28 -6 -28 -6 8 26 64 59 88 172 41
197 -22 12 -89 17 -98 8 -4 -4 -15 -7 -25 -7 -9 0 -19 -3 -22 -7 -2 -5 -2 -1
1 7 10 33 6 55 -11 58 -16 3 -17 1 -5 -18 10 -18 10 -24 1 -27 -7 -3 -13 -13
-13 -24 0 -25 -40 -26 -41 -1 0 9 -2 31 -3 47 -2 17 5 45 15 63 12 20 19 53
19 83 0 41 -5 54 -26 74 -15 14 -33 25 -40 25 -12 0 -19 26 -15 53 0 4 -3 7
-9 7 -5 0 -10 7 -10 15 0 8 -4 15 -10 15 -5 0 -7 7 -4 15 4 8 2 15 -4 15 -6 0
-8 10 -4 22 4 15 2 19 -8 13 -8 -5 -24 5 -46 29 l-33 36 34 0 c47 0 84 19 101
52 15 29 38 40 28 13 -11 -27 5 -16 21 15 20 39 50 39 74 -1 l19 -31 20 20
c29 29 52 113 52 186 0 78 -42 160 -87 169 -15 3 -47 22 -70 41 -22 20 -46 36
-52 36 -6 0 -11 5 -11 11 0 7 7 8 18 4 9 -4 24 -8 32 -10 8 -2 15 -4 15 -6 0
-1 10 -3 21 -4 19 -2 18 2 -12 32 -35 35 -105 72 -136 73 -21 0 -22 -4 -8 -31
10 -18 9 -18 -17 -7 -15 7 -35 21 -44 30 -21 23 -28 23 -22 -2 3 -10 10 -18
16 -17 6 1 12 -8 13 -20 2 -30 -11 -29 -31 0 -8 13 -26 30 -40 37 -14 7 -25
20 -25 27 0 10 -5 11 -18 4 -13 -7 -23 -6 -32 2 -10 9 -12 9 -8 -3z m253 -50
c3 -5 1 -10 -4 -10 -6 0 -11 5 -11 10 0 6 2 10 4 10 3 0 8 -4 11 -10z m-167
-66 c-11 -12 -14 -7 -14 28 l-2 42 15 -28 c13 -24 13 -31 1 -42z m-156 24 c-6
-6 -16 -8 -22 -6 -9 3 -7 9 6 22 13 13 19 15 22 6 2 -6 0 -16 -6 -22z m264 -5
c-10 -10 -19 5 -10 18 6 11 8 11 12 0 2 -7 1 -15 -2 -18z m-136 -3 c0 -5 -2
-10 -4 -10 -3 0 -8 5 -11 10 -3 6 -1 10 4 10 6 0 11 -4 11 -10z m193 -31 c-23
-9 -36 3 -27 25 6 16 8 16 26 -1 18 -16 18 -18 1 -24z m-360 18 c3 -8 1 -20
-4 -28 -7 -11 -9 -11 -9 4 0 9 -5 17 -11 17 -5 0 -7 5 -4 10 9 14 22 12 28 -3z
m142 3 c3 -5 2 -10 -4 -10 -5 0 -13 5 -16 10 -3 6 -2 10 4 10 5 0 13 -4 16
-10z m155 -29 c-11 -22 -14 -72 -2 -55 15 22 41 23 65 1 13 -12 36 -33 52 -45
24 -21 26 -29 21 -62 -3 -21 -3 -40 2 -42 4 -2 22 -22 40 -45 33 -43 41 -78
20 -86 -20 -6 -117 46 -117 63 -1 27 -50 71 -74 66 -12 -2 -56 -10 -97 -17
-41 -7 -80 -16 -86 -21 -7 -5 -29 -5 -50 -1 -22 5 -71 7 -111 5 -69 -3 -73 -5
-91 -36 -18 -30 -66 -55 -79 -42 -9 8 19 138 38 184 10 23 25 42 33 42 8 0 17
9 21 19 3 11 18 24 33 29 24 8 27 7 28 -12 1 -12 12 -33 25 -48 21 -24 24 -25
37 -9 7 9 10 10 7 3 -9 -17 2 -62 15 -62 6 0 10 23 10 50 0 51 13 67 25 30 4
-11 11 -17 17 -14 6 4 17 -1 24 -11 15 -20 20 -12 26 35 3 22 6 20 27 -21 36
-68 71 -54 86 34 4 20 12 37 19 37 7 0 18 11 24 25 6 14 14 25 17 25 3 0 1 -9
-5 -19z m105 -1 c3 -5 1 -10 -4 -10 -6 0 -11 5 -11 10 0 6 2 10 4 10 3 0 8 -4
11 -10z m-376 -47 c0 -5 -4 -17 -9 -28 -8 -18 -9 -17 -9 8 -1 15 4 27 9 27 6
0 10 -3 9 -7z m84 -13 c3 -11 1 -23 -4 -26 -5 -3 -9 6 -9 20 0 31 6 34 13 6z
m-210 -236 c11 -11 -3 -24 -18 -18 -8 4 -12 10 -9 15 6 11 18 12 27 3z m327
-4 c0 -5 -4 -10 -10 -10 -5 0 -10 5 -10 10 0 6 5 10 10 10 6 0 10 -4 10 -10z
m-280 -35 c0 -10 -10 -15 -31 -15 -27 0 -30 2 -19 15 7 8 21 15 31 15 11 0 19
-7 19 -15z m222 -153 c32 -30 38 -59 11 -47 -64 27 -90 29 -132 7 -29 -15 -41
-18 -41 -9 0 19 73 116 88 117 6 0 12 6 12 13 0 6 8 -3 17 -21 9 -18 29 -45
45 -60z m212 65 c-6 -17 -34 -31 -43 -21 -3 3 5 14 18 25 26 21 35 20 25 -4z
m-331 -212 c18 -25 18 -25 -10 -25 -15 0 -38 -3 -50 -6 -28 -8 -31 11 -6 38
22 25 44 22 66 -7z m-3 -215 c-19 -13 -30 -13 -30 0 0 6 10 10 23 10 18 0 19
-2 7 -10z m-160 -68 c0 -5 -18 -14 -40 -21 -53 -16 -42 -35 14 -27 l41 6 -29
-15 c-15 -8 -33 -12 -40 -8 -6 3 1 -7 17 -24 15 -16 27 -32 27 -35 0 -3 -17
-2 -37 3 -21 5 -54 6 -73 3 l-35 -5 37 17 c42 18 42 34 0 34 -38 0 -73 -26
-65 -48 6 -14 4 -15 -9 -4 -13 10 -17 10 -22 0 -3 -7 -5 -4 -3 7 5 40 217 154
217 117z m1410 -104 c0 -5 -4 -8 -10 -8 -5 0 -10 10 -10 23 0 18 2 19 10 7 5
-8 10 -18 10 -22z m-1413 -74 c-3 -3 -12 -4 -19 -1 -8 3 -5 6 6 6 11 1 17 -2
13 -5z m742 2 c-8 -8 -98 -10 -105 -3 -4 4 19 7 51 7 32 0 56 -2 54 -4z m-65
-52 c3 -8 2 -12 -4 -9 -6 3 -10 10 -10 16 0 14 7 11 14 -7z m-929 -171 c-3
-16 -9 -38 -12 -50 -7 -31 14 -30 28 1 10 21 15 23 35 14 13 -6 24 -15 24 -19
0 -13 -36 -29 -64 -29 -14 0 -28 -4 -31 -10 -3 -5 -1 -10 4 -10 14 0 14 -37 1
-45 -13 -8 -13 -45 0 -45 8 0 39 48 42 67 0 5 15 18 32 30 17 12 37 27 44 33
20 18 15 -17 -10 -68 -16 -31 -33 -49 -58 -60 -19 -8 -61 -27 -92 -43 -41 -20
-58 -24 -58 -15 0 8 7 19 15 26 8 7 15 20 15 30 0 9 3 20 7 24 4 4 8 22 9 41
1 36 53 155 67 155 5 0 6 -12 2 -27z m1075 -96 c-12 -13 -45 -4 -45 13 0 8 5
15 12 15 6 0 15 4 19 8 11 10 24 -25 14 -36z m-71 -41 c5 -26 6 -44 2 -41 -10
10 -29 84 -23 90 8 8 11 1 21 -49z m66 -36 c3 -5 1 -10 -4 -10 -6 0 -11 5 -11
10 0 6 2 10 4 10 3 0 8 -4 11 -10z m560 -20 c3 -5 1 -10 -4 -10 -6 0 -11 5
-11 10 0 6 2 10 4 10 3 0 8 -4 11 -10z m-491 -54 c10 -3 16 -9 13 -12 -11 -11
-87 41 -87 60 0 5 12 -2 28 -16 15 -14 36 -28 46 -32z m126 -27 c0 -18 -18 -9
-23 12 -4 16 -3 18 9 8 8 -6 14 -15 14 -20z m416 -133 c1 -27 -1 -44 -5 -37
-6 10 -11 9 -22 -2 -8 -7 -25 -19 -37 -26 l-23 -12 20 38 c16 33 26 83 22 117
-1 5 -7 4 -13 -2 -7 -6 -17 -10 -23 -10 -5 0 -27 -34 -49 -75 -22 -42 -41 -75
-43 -73 -4 4 86 197 99 213 18 22 71 -72 74 -131z m-476 84 c0 -5 -4 -10 -10
-10 -5 0 -10 5 -10 10 0 6 5 10 10 10 6 0 10 -4 10 -10z m-260 -59 c0 -5 9 -7
20 -4 14 4 23 -2 32 -21 7 -18 31 -36 65 -51 63 -29 70 -49 16 -42 -54 7 -73
17 -83 42 -7 19 -18 24 -62 27 -29 2 -61 -1 -70 -6 -13 -8 -22 -5 -37 8 -20
18 -21 18 -32 -7 -14 -31 -29 -26 -29 9 0 23 9 29 38 25 8 -1 20 3 28 10 7 6
25 8 38 5 14 -3 28 -2 31 4 8 12 45 13 45 1z m-434 -151 c21 -22 45 -38 52
-35 6 2 12 0 12 -5 0 -19 -36 -10 -83 20 -46 29 -54 40 -40 53 11 12 19 8 59
-33z m1141 9 c14 -14 6 -39 -13 -39 -8 0 -14 -7 -14 -15 0 -17 -4 -18 -49 -9
-17 4 -31 10 -31 15 0 7 78 59 91 59 3 0 10 -5 16 -11z m-767 -35 c0 -2 -11
-4 -25 -4 -14 0 -25 4 -25 9 0 4 11 6 25 3 14 -2 25 -6 25 -8z"/>
<path d="M93 1915 c12 -25 27 -34 27 -16 0 9 -27 41 -35 41 -2 0 2 -11 8 -25z"/>
<path d="M15 1910 c-3 -5 1 -10 10 -10 9 0 13 5 10 10 -3 6 -8 10 -10 10 -2 0
-7 -4 -10 -10z"/>
<path d="M98 1858 c5 -7 8 -26 6 -43 -3 -29 -6 -198 -5 -324 1 -35 3 -62 6
-59 3 3 8 103 12 222 5 202 5 216 -12 216 -13 0 -15 -3 -7 -12z"/>
<path d="M44 1655 c0 -104 2 -146 3 -92 2 54 2 139 0 190 -1 51 -3 7 -3 -98z"/>
<path d="M1671 1501 c-25 -7 -34 -26 -32 -75 0 -16 -4 -37 -10 -48 -13 -23
-12 -24 23 -33 24 -6 28 -2 53 46 28 57 31 113 5 116 -8 0 -26 -2 -39 -6z"/>
<path d="M2510 1486 c0 -2 11 -24 25 -47 14 -24 25 -37 25 -29 0 16 -36 80
-45 80 -3 0 -5 -2 -5 -4z"/>
<path d="M824 1444 c-6 -23 16 -94 38 -119 4 -5 8 26 7 68 -1 68 -3 77 -20 77
-12 0 -21 -10 -25 -26z"/>
<path d="M43 1365 c0 -22 2 -30 4 -17 2 12 2 30 0 40 -3 9 -5 -1 -4 -23z"/>
<path d="M1526 1305 c-2 -7 4 -15 17 -19 27 -7 28 -5 6 16 -14 13 -19 14 -23
3z"/>
<path d="M1982 1270 c0 -19 2 -27 5 -17 2 9 2 25 0 35 -3 9 -5 1 -5 -18z"/>
<path d="M1530 1271 c0 -7 -5 -9 -12 -5 -7 5 -8 3 -3 -5 5 -9 10 -10 18 -2 6
6 8 14 4 18 -4 3 -7 1 -7 -6z"/>
<path d="M31 1224 c0 -11 3 -14 6 -6 3 7 2 16 -1 19 -3 4 -6 -2 -5 -13z"/>
<path d="M91 1214 c0 -11 3 -14 6 -6 3 7 2 16 -1 19 -3 4 -6 -2 -5 -13z"/>
<path d="M1980 1214 c0 -8 5 -12 10 -9 6 4 8 11 5 16 -9 14 -15 11 -15 -7z"/>
<path d="M29 998 c0 -112 -1 -220 -3 -240 -2 -21 1 -38 6 -38 4 0 8 108 8 240
0 132 -2 240 -5 240 -3 0 -5 -91 -6 -202z"/>
<path d="M170 1170 c0 -5 5 -10 10 -10 6 0 10 5 10 10 0 6 -4 10 -10 10 -5 0
-10 -4 -10 -10z"/>
<path d="M90 1091 c0 -25 6 -27 13 -6 4 8 2 17 -3 20 -6 4 -10 -3 -10 -14z"/>
<path d="M220 1074 c8 -20 7 -25 -2 -22 -7 3 -22 2 -33 -2 -11 -4 -26 -3 -32
2 -9 7 -13 7 -13 -1 0 -6 11 -13 25 -17 14 -3 30 -14 36 -23 7 -12 12 -13 15
-3 3 6 12 12 20 12 8 0 11 6 7 17 -4 11 -3 14 5 9 15 -9 15 -4 0 29 -16 35
-41 34 -28 -1z"/>
<path d="M310 1065 c-9 -10 -9 -15 -1 -15 6 0 11 4 11 9 0 5 8 12 18 14 14 4
14 5 1 6 -9 0 -22 -6 -29 -14z"/>
<path d="M90 1030 c0 -18 4 -29 10 -25 6 3 10 15 10 25 0 10 -4 22 -10 25 -6
4 -10 -7 -10 -25z"/>
<path d="M337 1035 c-12 -8 -14 -15 -8 -20 6 -3 11 -1 11 5 0 6 4 9 9 5 5 -3
12 -1 15 4 10 16 -8 20 -27 6z"/>
<path d="M285 1020 c3 -5 10 -10 16 -10 5 0 9 5 9 10 0 6 -7 10 -16 10 -8 0
-12 -4 -9 -10z"/>
<path d="M147 1014 c-11 -11 3 -24 18 -18 8 4 12 10 9 15 -6 11 -18 12 -27 3z"/>
<path d="M94 825 c0 -93 2 -133 3 -88 2 45 2 122 0 170 -1 48 -3 12 -3 -82z"/>
<path d="M125 980 c3 -5 11 -10 16 -10 6 0 7 5 4 10 -3 6 -11 10 -16 10 -6 0
-7 -4 -4 -10z"/>
<path d="M28 685 c-6 -30 -3 -43 8 -33 3 4 4 19 2 35 l-3 28 -7 -30z"/>
<path d="M24 440 c0 -113 2 -159 3 -102 2 56 2 148 0 205 -1 56 -3 10 -3 -103z"/>
<path d="M1926 523 c8 -38 25 -73 37 -73 5 0 6 6 3 13 -2 6 -10 29 -17 50 -14
43 -32 51 -23 10z"/>
<path d="M81 374 c0 -11 3 -14 6 -6 3 7 2 16 -1 19 -3 4 -6 -2 -5 -13z"/>
<path d="M81 274 c0 -11 3 -14 6 -6 3 7 2 16 -1 19 -3 4 -6 -2 -5 -13z"/>
<path d="M21 184 c0 -11 3 -14 6 -6 3 7 2 16 -1 19 -3 4 -6 -2 -5 -13z"/>
</g>
</svg>
